<svg xmlns="http://www.w3.org/2000/svg" viewBox="0 0 937.36 303.39"><defs><style>.cls-1{fill:#fff;}</style></defs><g id="Layer_2" data-name="Layer 2"><g id="Layer_1-2" data-name="Layer 1"><path class="cls-1" d="M275.1,253.73a11.74,11.74,0,0,1-11.89-9c-1.25-5.08-2.39-11-3.06-14.47L232.58,92.92a12.1,12.1,0,0,1,11.95-14.49l10.62.07A14.23,14.23,0,0,1,260,79.78a11.27,11.27,0,0,1,1.59.8,27.72,27.72,0,0,1,11.59,14c.2.55,7.58,48.31,22.14,118.79a12,12,0,0,0,.79,2.49c1.41,3.2,2.95,4.8,4.6,4.8q4.84,0,12.51-14.65,11.74-22.8,18.78-58.61a159.26,159.26,0,0,0,3.12-29.79q0-20.83-10.32-26.7A13.93,13.93,0,0,0,318,89.15a22.3,22.3,0,0,0-9.85,2.77h2a18,18,0,0,1,12.52,5.21,18.88,18.88,0,0,1,5.78,13.67,19.45,19.45,0,0,1-3.91,11.72q-5.79,7.33-14.39,7.33-9.21,0-14.77-7.88a11.46,11.46,0,0,1-.75-1.2,22.84,22.84,0,0,1-2.78-11.11,32.62,32.62,0,0,1,8.6-22.46q9.71-9.76,22.37-9.77a27.72,27.72,0,0,1,20,8.47q12,12.21,12,39.88,0,24.25-9.07,54.53Q333.35,220.2,314,241.2q-12.36,12.54-23.78,12.53Z"/><path class="cls-1" d="M271.88,99.15c-.32-1.93-.58-3.5-.66-4a25.85,25.85,0,0,0-10.71-12.91,8.44,8.44,0,0,0-1.31-.66,12.09,12.09,0,0,0-4-1.13l-10.64-.07h-.06a10.11,10.11,0,0,0-9.91,12.1L262.27,230.7c.69,3.55,1.74,8.92,2.88,13.58a9.75,9.75,0,0,0,9.91,7.45h13.68L288.69,191C279.41,144.32,273.88,111.14,271.88,99.15Z"/><path class="cls-1" d="M261.27,245.24c-1.17-4.76-2.23-10.19-2.93-13.78l-.15-.79L230.61,93.32a14.12,14.12,0,0,1,13.84-16.89h.09l10.62.07a15.78,15.78,0,0,1,5.55,1.43,14.34,14.34,0,0,1,1.88.94,29.8,29.8,0,0,1,12.41,15,37,37,0,0,1,.83,4.61c1.69,10.16,5.93,35.6,12.84,71.55L288.55,0c0,4.19-13,4.1-39,4.1q-39.3,0-39.3.25V120.16H151.14V34.24q0-8.22-6.39-16.19Q132.29,4.1,110.88,4.1H81.16Q37.71,4.1,14.38,27,0,42.46,0,60.88A38.66,38.66,0,0,0,12.78,90.27Q24.6,99.74,40.9,99.73A33.36,33.36,0,0,0,58.8,95q9.26-6.47,9.26-15.69,0-8.2-8-14.94a32.43,32.43,0,0,0-18.85-6,37.43,37.43,0,0,0-8,1q-11.19,3.49-15,9.46,0-17.17,15.66-28.39,9.59-6.21,19.49-6.22a19.19,19.19,0,0,1,7,1.24q12.47,4,12.47,18.18V223q0,10,8,18.43,12.47,12.19,32,12.2,38.34,0,38.34-.25V137.09h59.12V223q0,10,8,18.43,12.45,12.19,31.95,12.2l17.21.06A13.55,13.55,0,0,1,261.27,245.24Z"/><path class="cls-1" d="M429.41,254.39q-23.61,0-41.14-17.1Q371.7,220,371.69,196.92a62.93,62.93,0,0,1,5.32-26A51.29,51.29,0,0,1,404.7,144.5a55.52,55.52,0,0,1,20.8-4.06q17.69,0,29.41,10.41a32.21,32.21,0,0,1,10.33,24.42q0,12.38-11.42,23.44a49,49,0,0,1-31.92,11.4,64.27,64.27,0,0,1-10.95-1q0,1.14.79,7A46.51,46.51,0,0,0,417.21,231q7.83,11.22,23.62,11.23,12,0,23.16-9.28a58.71,58.71,0,0,0,12.67-17.09h6.88l-.16.16a59.49,59.49,0,0,1-23.3,29.3A54.85,54.85,0,0,1,429.41,254.39Zm-14.7-51.28q3.75,0,10.17-5.37a29,29,0,0,0,8.44-14.33q.63-3.25.63-16.44,0-16.44-7.82-16.44-5.33,0-10.48,8.46-4.69,7.66-5.16,23.44v15.14C410.49,201.26,411.89,203.11,414.71,203.11Z"/><path class="cls-1" d="M579.59,254.39h-23q-11.11,0-21-12a66.3,66.3,0,0,1-4.22-6.18L512,200.34l-.78-.16v54.21H472.75V91.27h19.4a18.43,18.43,0,0,1,12.35,4.89,20.42,20.42,0,0,1,6.73,15.14v80.41a22.66,22.66,0,0,0,6.1.82q10.17,0,20-6.84a34.15,34.15,0,0,0,8.14-7.49,14.23,14.23,0,0,1-4.07-1.14,18.4,18.4,0,0,1-10.32-10.25,20.29,20.29,0,0,1-1.41-7.49,19.2,19.2,0,0,1,6.41-14.49A17.82,17.82,0,0,1,548,140.27q7.51,0,13.3,6a22.31,22.31,0,0,1,5,14.48A39.25,39.25,0,0,1,561.45,179a38.81,38.81,0,0,1-14.24,15.3Z"/><path class="cls-1" d="M603.06,254.39H583.5V140.44h18.77a19.32,19.32,0,0,1,15,6.83,29.58,29.58,0,0,1,22.53-9.93,31.19,31.19,0,0,1,19.71,7.16q12.19,9.94,12.2,25.89A27.43,27.43,0,0,1,667.9,185a21,21,0,0,1-10.56,8.87,18.06,18.06,0,0,1-6.73,1.3,17.46,17.46,0,0,1-13.14-6,18.72,18.72,0,0,1-4.85-12.7,21.84,21.84,0,0,1,5.63-14.65q6.59-7,15.49-7A19.58,19.58,0,0,0,640,149.22a19.33,19.33,0,0,0-13.77,5.7c-2.82,3.15-4.22,5.38-4.22,6.68v72.76a20.14,20.14,0,0,1-6.57,15Q609.63,254.4,603.06,254.39Z"/><path class="cls-1" d="M696.61,131.32A18.77,18.77,0,0,1,683.47,126a20.3,20.3,0,0,1-1.41-27.51q6.26-7,14.55-7a19.31,19.31,0,0,1,11.73,4.06,20.38,20.38,0,0,1,7.51,16,19.92,19.92,0,0,1-4.54,12.7Q705.06,131.32,696.61,131.32Zm11.73,123.07q-13,0-22.69-10.1a31.91,31.91,0,0,1-8.29-22V140.44h19.25q7.82,0,13.92,6.18a25.4,25.4,0,0,1,2.81,4.07,20.48,20.48,0,0,1,2.51,10.58v61.21q0,14.82,8.76,14.81c2.71,0,5.26-1.4,7.66-4.23q5.33-6,9.08-17.25a59.85,59.85,0,0,1,7.19.16,78.89,78.89,0,0,1-12.2,23.6Q724.29,254.39,708.34,254.39Z"/><path class="cls-1" d="M780.3,303.39a53.62,53.62,0,0,1-22.53-4.72q-16-7.67-15.95-22.63a16.87,16.87,0,0,1,5-12.37,15.83,15.83,0,0,1,11.58-5.05,17,17,0,0,1,11.73,4.88q5.48,5.87,5.48,12.86a17.35,17.35,0,0,1-2.66,8.88,15.18,15.18,0,0,1-6,6.1,30.71,30.71,0,0,0,6.57-1.14q15.49-3.58,19.87-16.6,2.5-7,2.5-22.14V239.25q-12,15.13-28.47,15.14a30.8,30.8,0,0,1-16.74-5q-5.94-3.74-8.29-8a31.41,31.41,0,0,1-5.94-19v-62a19.62,19.62,0,0,1,20-19.86h18.3q.16,0,.16,81.55,0,15.47,8.76,15.47,5.79,0,10.64-8l1.56-2.77V140.44h38.33V249.67q0,30.91-22.53,44.93A59.19,59.19,0,0,1,780.3,303.39Z"/><path class="cls-1" d="M873.38,254.88a27.09,27.09,0,0,1-18.62-7.49,36.12,36.12,0,0,1-10.48-26.21,29.81,29.81,0,0,1,5-16q10.17-15.45,31.6-19.53,15-3.9,17.52-14a27.94,27.94,0,0,0,.47-6.18q0-6.84-3.83-10.59t-11-3.74a37.87,37.87,0,0,0-10.8,1.79,15.6,15.6,0,0,1,7,7.33,14.38,14.38,0,0,1,2.19,7.65,18.15,18.15,0,0,1-4.54,12q-5.62,6-12.82,6A15.81,15.81,0,0,1,854.45,182a17.85,17.85,0,0,1-5.79-13.68,24.26,24.26,0,0,1,3.91-12.86,31.65,31.65,0,0,1,15.49-11.72q8-3.25,23-3.25,27.69,0,38.32,14.81,8,10.58,8,29v70.16H918.12a18.32,18.32,0,0,1-13-5.54,23.73,23.73,0,0,1-4.85-7.32Q887.45,254.88,873.38,254.88Zm9.85-10.1q4.38,0,9.23-6.83,6.42-9.78,6.42-23V185q-2,4.88-11,10.91a68.56,68.56,0,0,0-5.48,4.39q-7,6.84-7,19.21V230q0,7.17,2.82,11.72Q880.26,244.78,883.23,244.78Z"/></g></g></svg>